<?xml version="1.0" encoding="UTF-8" standalone="no"?>
<!-- Created with Inkscape (http://www.inkscape.org/) -->

<svg
   width="4.2333331mm"
   height="4.2333331mm"
   viewBox="0 0 4.2333331 4.2333332"
   version="1.1"
   id="svg5"
   inkscape:version="1.1.1 (3bf5ae0d25, 2021-09-20)"
   sodipodi:docname="sex_favicon.svg"
   xmlns:inkscape="http://www.inkscape.org/namespaces/inkscape"
   xmlns:sodipodi="http://sodipodi.sourceforge.net/DTD/sodipodi-0.dtd"
   xmlns="http://www.w3.org/2000/svg"
   xmlns:svg="http://www.w3.org/2000/svg">
  <sodipodi:namedview
     id="namedview7"
     pagecolor="#505050"
     bordercolor="#eeeeee"
     borderopacity="1"
     inkscape:pageshadow="0"
     inkscape:pageopacity="0"
     inkscape:pagecheckerboard="0"
     inkscape:document-units="mm"
     showgrid="false"
     inkscape:zoom="5.8725028"
     inkscape:cx="52.27754"
     inkscape:cy="40.442722"
     inkscape:window-width="1920"
     inkscape:window-height="1009"
     inkscape:window-x="1072"
     inkscape:window-y="413"
     inkscape:window-maximized="1"
     inkscape:current-layer="g1094"
     inkscape:snap-global="false" />
  <defs
     id="defs2">
    <clipPath
       clipPathUnits="userSpaceOnUse"
       id="clipPath23">
      <path
         d="M 0,841.89 H 1190.55 V 0 H 0 Z"
         id="path21" />
    </clipPath>
  </defs>
  <g
     inkscape:label="Livello 1"
     inkscape:groupmode="layer"
     id="layer1"
     transform="translate(141.31807,-4.8985467)">
    <g
       id="g1094">
      <g
         id="g1522"
         transform="translate(0.01202338,0.08727742)">
        <rect
           style="fill:#000000;fill-opacity:1;stroke:none;stroke-width:0.0200836"
           id="rect866"
           width="4.2333331"
           height="4.2333331"
           x="-141.33009"
           y="4.8112693"
           rx="0.55555558"
           ry="0.55555558" />
        <g
           id="g1497"
           transform="matrix(0.00471591,-3.697427e-4,-3.697427e-4,-0.00471591,-141.17639,9.3804105)"
           style="fill:#ffffff">
          <g
             id="g1513">
            <g
               id="g25"
               transform="matrix(2.1349018,0,0,2.1349018,351.46095,743.04393)"
               style="fill:#ffffff">
              <path
                 d="m 0,0 c 1.389,-3.7 0.112,-7.279 -3.814,-10.752 -4.393,-3.702 -6.709,-6.355 -6.934,-7.971 -0.694,-3.009 -2.084,-7.341 -4.159,-13.004 -2.084,-5.663 -4.513,-9.309 -7.283,-10.92 -3.007,-1.858 -5.32,-1.56 -6.934,0.865 -1.626,2.429 -3.585,3.749 -5.893,3.984 -2.55,0.235 -4.28,-0.235 -5.208,-1.383 -0.923,-1.158 -2.77,-1.738 -5.544,-1.738 -6.239,-0.926 -11.321,-2.887 -15.256,-5.892 -3.698,-3.005 -4.803,-7.509 -3.288,-13.517 1.497,-6.015 2.942,-11.328 4.336,-15.953 2.071,-7.626 8.66,-19.878 19.752,-36.752 4.392,-7.397 7.4,-18.149 9.022,-32.24 1.609,-14.102 2.429,-23.58 2.429,-28.435 0,-4.848 -2.774,-13.061 -8.327,-24.615 -5.548,-11.554 -10.291,-19.642 -14.216,-24.269 -3.935,-4.85 -6.006,-6.817 -6.244,-5.898 -0.233,0.925 -3.115,0.228 -8.659,-2.073 -5.781,-2.548 -8.323,-4.336 -7.633,-5.374 0.695,-1.049 -0.69,-2.257 -4.163,-3.646 -3.461,-1.387 -8.207,-1.955 -14.208,-1.734 -6.014,0.234 -10.756,0.347 -14.221,0.347 -3.469,0.468 -6.239,1.331 -8.318,2.601 -2.084,1.267 -4.626,1.908 -7.624,1.908 -3.473,0 -4.979,-1.45 -4.517,-4.33 0.466,-2.889 -0.225,-5.257 -2.072,-7.108 -2.083,-1.388 -4.107,-0.926 -6.07,1.382 -1.963,2.313 -2.485,5.547 -1.562,9.71 0.699,4.164 1.264,6.762 1.735,7.799 0.461,1.042 -0.471,4.101 -2.774,9.192 -2.546,5.083 -3.241,10.918 -2.08,17.509 1.152,6.581 2.196,11.837 3.119,15.774 0.699,3.93 0.117,5.546 -1.734,4.856 -1.851,-0.693 -3.12,1.035 -3.81,5.198 -0.69,4.16 1.614,8.954 6.933,14.388 5.316,5.429 11.667,9.539 19.071,12.316 7.162,2.77 11.097,2.595 11.787,-0.527 0.691,-3.121 1.502,-6.071 2.421,-8.841 0.703,-3.009 0.233,-6.359 -1.385,-10.061 -1.614,-3.695 -1.381,-7.507 0.694,-11.438 2.084,-3.935 5.777,-3.874 11.089,0.173 5.319,4.04 9.021,7.805 11.105,11.265 2.999,5.782 1.036,12.253 -5.897,19.429 -1.161,0.912 -1.506,5.656 -1.036,14.207 0,3.474 -1.739,7.396 -5.208,11.788 -2.079,2.079 -4.332,3.473 -6.761,4.165 -2.425,0.691 -3.986,2.88 -4.677,6.582 -0.69,3.467 -1.384,9.07 -2.084,16.819 -0.69,7.742 -1.963,13.349 -3.814,16.811 -2.304,3.7 -2.77,12.018 -1.38,24.966 0.457,5.318 3.46,16.065 9.013,32.247 5.549,16.169 9.358,26.578 11.442,31.199 1.842,4.163 6.7,6.704 14.562,7.63 7.852,0.919 14.441,3.24 19.76,6.936 5.083,3.46 10.976,4.681 17.682,3.639 6.704,-1.042 12.827,-1.555 18.379,-1.555 C -14.907,25.19 -9.246,18.602 -3.469,5.894 -1.851,3.808 -0.69,1.847 0,0"
                 style="fill:#ffffff;fill-opacity:1;fill-rule:nonzero;stroke:none"
                 id="path27" />
            </g>
            <g
               id="g37"
               transform="matrix(2.3766516,0,0,2.3766516,593.56803,720.2066)"
               style="fill:#ffffff">
              <path
                 d="M 0,0 C 1.29,-0.919 2.636,-8.845 3.982,-23.229 5.32,-37.605 5.031,-49.833 3.059,-59.869 1.092,-69.913 1.048,-80.652 2.956,-92.077 c 1.907,-11.421 3.999,-14.173 5.958,-8.379 1.89,5.566 6.636,19.437 14.264,41.372 7.628,21.927 12.167,35.569 13.755,40.825 1.523,5.073 4.884,9.698 9.975,13.854 5.087,4.146 9.962,5.017 14.285,2.489 4.401,-2.554 8.685,-2.796 12.746,-0.354 4.06,2.443 8.301,3.228 12.283,2.097 2.309,-0.66 4.332,-11.011 5.708,-30.581 0.22,-3.193 1.334,-6.416 3.362,-9.622 2.032,-3.21 3.227,-6.493 3.374,-9.63 0.116,-2.334 -0.604,-6.152 -2.011,-11.257 -1.406,-5.112 -1.8,-9.772 -1.54,-13.676 0.271,-4.078 1.29,-7.512 3.378,-9.919 2.097,-2.413 3.037,-4.686 2.986,-6.611 -0.186,-6.782 -1.269,-11.601 -3.849,-13.849 -2.567,-2.252 -4.039,-4.868 -4.418,-7.827 -2.058,-15.929 -0.186,-32.626 1.989,-48.453 2.023,-14.72 4.194,-29.779 4.793,-44.414 0.315,-7.662 -1.45,-11.994 -4.918,-12.606 -3.461,-0.596 -5.885,-3.176 -7.439,-7.353 -1.579,-4.228 -4.375,-5.66 -7.736,-4.038 -10.635,5.152 -17.547,5.971 -20.52,1.847 -2.895,-3.995 -6.394,-2.792 -10.242,3.637 -3.862,6.433 -4.578,15.062 -2.555,25.62 2.011,10.531 3.297,18.099 4.086,22.344 0.79,4.238 1.998,11.745 3.12,22.109 2.826,25.965 5.708,79.293 5.708,79.293 -0.315,0.09 -10.687,-15.697 -12.789,-13.846 -2.221,1.954 -3.331,4.215 -3.054,6.787 0.276,2.572 -0.746,1.717 -2.761,-2.503 -2.18,-4.543 -3.556,-9.647 -4.228,-14.997 -0.666,-5.345 -1.42,-10.994 -2.223,-16.922 -1.277,-9.474 -3.935,-17.586 -8.107,-23.998 -2.476,-3.813 -4.884,-11.148 -7.093,-21.969 -2.209,-10.83 -4.811,-19.26 -7.68,-25.223 -2.942,-6.135 -5.967,-9.405 -9.099,-9.682 -3.137,-0.267 -5.928,-1.523 -8.379,-3.727 -2.667,-2.404 -5.682,-3.021 -9.03,-1.873 -3.345,1.156 -5.152,3.943 -5.441,8.362 -0.281,4.409 0.194,9.88 1.415,16.369 1.225,6.506 2.61,12.892 3.443,18.621 0.833,5.713 0.453,11.956 -0.63,18.027 -1.07,6.084 -1.32,11.498 -0.751,16.249 0.575,4.75 0.548,9.742 -0.069,14.988 -0.617,5.238 -2.446,8.327 -5.423,9.112 -3.361,0.906 -4.155,4.238 -2.269,10.079 1.889,5.842 2.58,10.519 2.023,13.928 -1.195,7.244 -5.933,1.488 -14.225,-17.155 -8.207,-18.457 -14.117,-37.986 -20.274,-57.237 -5.229,-16.339 -9.82,-33.533 -17.345,-48.469 -3.9,-7.733 -9.108,-9.562 -14.561,-5.618 -2.869,2.071 -7.473,2.217 -13.574,0.483 -6.101,-1.752 -11.438,-3.512 -15.99,-5.281 -4.551,-1.778 -4.551,2.028 -0.026,11.408 4.531,9.371 8.345,17.448 11.464,24.136 1.791,3.822 4.626,14.212 8.12,30.918 3.145,15.018 9.35,29.757 19.174,41.618 10.778,13.008 16.162,29.883 15.412,46.648 -0.397,8.785 1.441,19.468 5.647,31.911 4.199,12.426 7.357,22.85 9.143,31.004 1.778,8.129 9.988,9.337 24.934,3.34 C -9.807,4.323 -1.337,0.94 0,0"
                 style="fill:#ffffff;fill-opacity:1;fill-rule:nonzero;stroke:none"
                 id="path39" />
            </g>
          </g>
        </g>
      </g>
    </g>
  </g>
</svg>
